<mxfile host="app.diagrams.net" modified="2023-04-16T06:26:37.934Z" agent="Mozilla/5.0 (Windows NT 10.0; Win64; x64) AppleWebKit/537.36 (KHTML, like Gecko) Chrome/114.0.0.0 Safari/537.36" version="21.1.7" etag="XzZRLXN4Ci6vu21h3vwN" type="github">
  <diagram name="第 1 页" id="o92OWuuQE5C6D6AFsSPo">
    <mxGraphModel>
      <root>
        <mxCell id="0" />
        <mxCell id="1" parent="0" />
      </root>
    </mxGraphModel>
  </diagram>
</mxfile>
